# xmcd
#
# Track frame offsets: 
#        150
#        12313
#        20697
#        38488
#        56023
#        72347
#        82720
#        96844
#        115731
#        131736
#        159311
#        173632
#        191873
#        217561
#        233093
#        249421
#        267294
#        285337
#        301285
#
# Disc length: 4191 seconds
#
# Revision: 0
# Processed by: cddbd v1.5.2PL0 Copyright (c) Steve Scherf et al.
# Submitted via: ExactAudioCopy v1.0b3
#
DISCID=f0105d13
DTITLE=Sister Ernestine Washington - Complete Recorded Works In Chrono
DTITLE=logical Order Vol. 2 (1954-c.1958)
DYEAR=1998
DGENRE=Gospel
TTITLE0=Holding On - Part 1
TTITLE1=Holding On - Part 2
TTITLE2=I Thank You Lord
TTITLE3=Wipe All Tears
TTITLE4=J-E-S-U-S Spells Jesus (Brother Miller and The Milleraires)
TTITLE5=Address By Bishop Washington Bishop (Frederick D. Washington)
TTITLE6=I Trust In God
TTITLE7=I'm Tired And Weary - Peace In The Valley
TTITLE8=The Lord Is My Shepherd
TTITLE9=Holdin' On
TTITLE10=Jesus Is The One
TTITLE11=Come Ye Disconsolate
TTITLE12=I Know The Lord Will Make A Way
TTITLE13=God Leads His Children Along
TTITLE14=Yes, There's One
TTITLE15=Breathe On Me
TTITLE16=Stand By Me
TTITLE17=I'm His Child
TTITLE18=Pentecostal Power
EXTD=
EXTT0=
EXTT1=
EXTT2=
EXTT3=
EXTT4=
EXTT5=
EXTT6=
EXTT7=
EXTT8=
EXTT9=
EXTT10=
EXTT11=
EXTT12=
EXTT13=
EXTT14=
EXTT15=
EXTT16=
EXTT17=
EXTT18=
PLAYORDER=
